<svg enable-background="new 0 0 512 512" viewBox="0 0 512 512" xmlns="http://www.w3.org/2000/svg"><path d="m255.107 1.894c-140.339 0-254.106 113.767-254.106 254.106s113.767 254.106 254.106 254.106 254.106-113.767 254.106-254.106-113.768-254.106-254.106-254.106zm-130.183 384.289c-34.773-34.773-53.923-81.007-53.923-130.183 0-37.761 11.303-73.78 32.289-104.214l256.03 256.031c-30.434 20.986-66.453 32.289-104.214 32.289-49.176 0-95.409-19.151-130.182-53.923zm283.54-28.218-255.323-255.322c29.952-20.004 65.133-30.749 101.966-30.749 49.176 0 95.41 19.15 130.183 53.923s53.923 81.006 53.923 130.183c0 36.833-10.745 72.013-30.749 101.965z" fill="#ff473e"/></svg>